# xmcd CD database file
#
# Track frame offsets:
#	150
#	22909
#	37705
#	53152
#	74696
#	94444
#	113265
#	128320
#	152639
#	171801
#	190622
#	215320
#	230369
#	248902
#
# Disc length: 3555 seconds
#
# Revision: 0
# Processed by: cddbd v1.5.1PL2 Copyright (c) Steve Scherf et al.
# Submitted via: Feurio! 1.68 - http://www.feurio.com
#
DISCID=a60de10e
DTITLE=Manfred Häder - Exbluesiv
DYEAR=2006
DGENRE=
TTITLE0=Lange Schatten
TTITLE1=Pack meine Koffer
TTITLE2=Schieb es auf
TTITLE3=Exbluesiv
TTITLE4=Heiß wie Eis
TTITLE5=Ellen Margarete
TTITLE6=Unten angelangt
TTITLE7=Ebbe und Flut
TTITLE8=Blues hat keine Farbe
TTITLE9=Alles versaut
TTITLE10=Ein Dutzend Tränen
TTITLE11=Zu schön
TTITLE12=Verbrannte Briefe
TTITLE13=Manjanam
EXTD=
EXTT0=
EXTT1=
EXTT2=
EXTT3=
EXTT4=
EXTT5=
EXTT6=
EXTT7=
EXTT8=
EXTT9=
EXTT10=
EXTT11=
EXTT12=
EXTT13=
PLAYORDER=
